<svg xmlns="http://www.w3.org/2000/svg" width="800" height="500" viewBox="0 0 800 500" role="img" aria-labelledby="title">
<title id="title">Admin Dashboard — Lo-fi placeholder</title>
<rect width="800" height="500" rx="16" fill="#F8FAFC" stroke="#E2E8F0"/>
<!-- header -->
<rect x="16" y="16" width="768" height="48" rx="8" fill="white" stroke="#E2E8F0"/>
<rect x="28" y="28" width="120" height="14" rx="4" fill="#1E293B" opacity="0.9"/>
<rect x="28" y="46" width="180" height="8" rx="4" fill="#64748B" opacity="0.5"/>
<circle cx="752" cy="40" r="16" fill="#FFAB00"/>
<!-- stats row -->
<g opacity="0.9">
<rect x="16" y="80" width="180" height="80" rx="12" fill="white" stroke="#E2E8F0"/>
<rect x="32" y="96" width="80" height="10" rx="4" fill="#CBD5E1"/>
<rect x="32" y="114" width="60" height="18" rx="4" fill="#1E293B"/>
<rect x="32" y="140" width="100" height="6" rx="3" fill="#10B981" opacity="0.6"/>
</g>
<g opacity="0.9">
<rect x="212" y="80" width="180" height="80" rx="12" fill="white" stroke="#E2E8F0"/>
<rect x="228" y="96" width="80" height="10" rx="4" fill="#CBD5E1"/>
<rect x="228" y="114" width="70" height="18" rx="4" fill="#1E293B"/>
<rect x="228" y="140" width="90" height="6" rx="3" fill="#3B82F6" opacity="0.6"/>
</g>
<g opacity="0.9">
<rect x="408" y="80" width="180" height="80" rx="12" fill="white" stroke="#E2E8F0"/>
<rect x="424" y="96" width="80" height="10" rx="4" fill="#CBD5E1"/>
<rect x="424" y="114" width="64" height="18" rx="4" fill="#1E293B"/>
<rect x="424" y="140" width="110" height="6" rx="3" fill="#FFAB00" opacity="0.7"/>
</g>
<g opacity="0.9">
<rect x="604" y="80" width="180" height="80" rx="12" fill="white" stroke="#E2E8F0"/>
<rect x="620" y="96" width="80" height="10" rx="4" fill="#CBD5E1"/>
<rect x="620" y="114" width="54" height="18" rx="4" fill="#1E293B"/>
<rect x="620" y="140" width="80" height="6" rx="3" fill="#F59E0B" opacity="0.6"/>
</g>
<!-- chart -->
<rect x="16" y="176" width="500" height="200" rx="12" fill="white" stroke="#E2E8F0"/>
<rect x="32" y="192" width="140" height="12" rx="4" fill="#1E293B"/>
<rect x="32" y="212" width="468" height="1" fill="#F1F5F9"/>
<!-- fake bars -->
<rect x="32" y="300" width="40" height="60" rx="4" fill="#BFDBFE"/>
<rect x="84" y="280" width="40" height="80" rx="4" fill="#93C5FD"/>
<rect x="136" y="260" width="40" height="100" rx="4" fill="#60A5FA"/>
<rect x="188" y="240" width="40" height="120" rx="4" fill="#2563EB"/>
<rect x="240" y="270" width="40" height="90" rx="4" fill="#93C5FD"/>
<rect x="292" y="290" width="40" height="70" rx="4" fill="#BFDBFE"/>
<rect x="344" y="250" width="40" height="110" rx="4" fill="#FFAB00" opacity="0.8"/>
<!-- side list -->
<rect x="532" y="176" width="252" height="200" rx="12" fill="white" stroke="#E2E8F0"/>
<rect x="548" y="192" width="100" height="10" rx="4" fill="#1E293B"/>
<g fill="#F1F5F9">
<rect x="548" y="216" width="220" height="28" rx="8"/>
<rect x="548" y="252" width="220" height="28" rx="8"/>
<rect x="548" y="288" width="220" height="28" rx="8"/>
<rect x="548" y="324" width="220" height="28" rx="8"/>
</g>
<text x="400" y="440" text-anchor="middle" font-family="Inter,sans-serif" font-size="11" font-weight="700" letter-spacing="0.08em" fill="#64748B">ADMIN DASHBOARD — LO-FI • 800×500 • Replace with screenshot</text>
</svg>
